<mxfile host="app.diagrams.net" modified="2024-07-21T10:16:52.996Z" agent="Mozilla/5.0 (Windows NT 10.0; Win64; x64) AppleWebKit/537.36 (KHTML, like Gecko) Chrome/126.0.0.0 Safari/537.36 Edg/126.0.0.0" etag="Ox9FtI11pVSVKlEDEI7K" version="24.7.1" type="device">
  <diagram name="Страница — 1" id="i9B7A1DGF1JoSNtygBpi">
    <mxGraphModel dx="1869" dy="535" grid="1" gridSize="10" guides="1" tooltips="1" connect="1" arrows="1" fold="1" page="1" pageScale="1" pageWidth="827" pageHeight="1169" math="0" shadow="0">
      <root>
        <mxCell id="0" />
        <mxCell id="1" parent="0" />
        <mxCell id="I6iFiEyMUWEjWhQxhYSQ-5" style="edgeStyle=orthogonalEdgeStyle;rounded=0;orthogonalLoop=1;jettySize=auto;html=1;entryX=0.5;entryY=0;entryDx=0;entryDy=0;" edge="1" parent="1" source="I6iFiEyMUWEjWhQxhYSQ-1" target="I6iFiEyMUWEjWhQxhYSQ-4">
          <mxGeometry relative="1" as="geometry" />
        </mxCell>
        <mxCell id="I6iFiEyMUWEjWhQxhYSQ-6" style="edgeStyle=orthogonalEdgeStyle;rounded=0;orthogonalLoop=1;jettySize=auto;html=1;entryX=0.5;entryY=0;entryDx=0;entryDy=0;" edge="1" parent="1" source="I6iFiEyMUWEjWhQxhYSQ-1" target="I6iFiEyMUWEjWhQxhYSQ-3">
          <mxGeometry relative="1" as="geometry" />
        </mxCell>
        <mxCell id="I6iFiEyMUWEjWhQxhYSQ-1" value="&lt;font style=&quot;font-size: 14px;&quot;&gt;Animals&lt;/font&gt;&lt;div style=&quot;font-size: 14px;&quot;&gt;&lt;font style=&quot;font-size: 14px;&quot;&gt;(&lt;span style=&quot;background-color: rgba(7, 28, 71, 0.05); font-family: &amp;quot;YS Text&amp;quot;, -apple-system, BlinkMacSystemFont, Arial, Helvetica, sans-serif; text-align: start; white-space-collapse: preserve;&quot;&gt;Parent class&lt;/span&gt;&lt;span style=&quot;background-color: initial;&quot;&gt;)&lt;/span&gt;&lt;/font&gt;&lt;/div&gt;" style="rounded=1;whiteSpace=wrap;html=1;" vertex="1" parent="1">
          <mxGeometry x="354" y="20" width="120" height="60" as="geometry" />
        </mxCell>
        <mxCell id="I6iFiEyMUWEjWhQxhYSQ-13" style="edgeStyle=orthogonalEdgeStyle;rounded=0;orthogonalLoop=1;jettySize=auto;html=1;entryX=0.5;entryY=0;entryDx=0;entryDy=0;" edge="1" parent="1" source="I6iFiEyMUWEjWhQxhYSQ-3" target="I6iFiEyMUWEjWhQxhYSQ-8">
          <mxGeometry relative="1" as="geometry" />
        </mxCell>
        <mxCell id="I6iFiEyMUWEjWhQxhYSQ-14" style="edgeStyle=orthogonalEdgeStyle;rounded=0;orthogonalLoop=1;jettySize=auto;html=1;entryX=0.5;entryY=0;entryDx=0;entryDy=0;" edge="1" parent="1" source="I6iFiEyMUWEjWhQxhYSQ-3" target="I6iFiEyMUWEjWhQxhYSQ-9">
          <mxGeometry relative="1" as="geometry" />
        </mxCell>
        <mxCell id="I6iFiEyMUWEjWhQxhYSQ-15" style="edgeStyle=orthogonalEdgeStyle;rounded=0;orthogonalLoop=1;jettySize=auto;html=1;entryX=0.5;entryY=0;entryDx=0;entryDy=0;" edge="1" parent="1" source="I6iFiEyMUWEjWhQxhYSQ-3" target="I6iFiEyMUWEjWhQxhYSQ-7">
          <mxGeometry relative="1" as="geometry" />
        </mxCell>
        <mxCell id="I6iFiEyMUWEjWhQxhYSQ-3" value="Pets(Anumals)" style="rounded=1;whiteSpace=wrap;html=1;" vertex="1" parent="1">
          <mxGeometry x="80" y="150" width="120" height="60" as="geometry" />
        </mxCell>
        <mxCell id="I6iFiEyMUWEjWhQxhYSQ-16" style="edgeStyle=orthogonalEdgeStyle;rounded=0;orthogonalLoop=1;jettySize=auto;html=1;entryX=0.5;entryY=0;entryDx=0;entryDy=0;" edge="1" parent="1" source="I6iFiEyMUWEjWhQxhYSQ-4" target="I6iFiEyMUWEjWhQxhYSQ-10">
          <mxGeometry relative="1" as="geometry" />
        </mxCell>
        <mxCell id="I6iFiEyMUWEjWhQxhYSQ-17" style="edgeStyle=orthogonalEdgeStyle;rounded=0;orthogonalLoop=1;jettySize=auto;html=1;entryX=0.5;entryY=0;entryDx=0;entryDy=0;" edge="1" parent="1" source="I6iFiEyMUWEjWhQxhYSQ-4" target="I6iFiEyMUWEjWhQxhYSQ-11">
          <mxGeometry relative="1" as="geometry" />
        </mxCell>
        <mxCell id="I6iFiEyMUWEjWhQxhYSQ-18" style="edgeStyle=orthogonalEdgeStyle;rounded=0;orthogonalLoop=1;jettySize=auto;html=1;entryX=0.5;entryY=0;entryDx=0;entryDy=0;" edge="1" parent="1" source="I6iFiEyMUWEjWhQxhYSQ-4" target="I6iFiEyMUWEjWhQxhYSQ-12">
          <mxGeometry relative="1" as="geometry" />
        </mxCell>
        <mxCell id="I6iFiEyMUWEjWhQxhYSQ-4" value="Pack animals(Anumals)" style="rounded=1;whiteSpace=wrap;html=1;" vertex="1" parent="1">
          <mxGeometry x="600" y="150" width="120" height="60" as="geometry" />
        </mxCell>
        <mxCell id="I6iFiEyMUWEjWhQxhYSQ-7" value="Dogs(Pets)" style="rounded=1;whiteSpace=wrap;html=1;" vertex="1" parent="1">
          <mxGeometry x="80" y="270" width="120" height="60" as="geometry" />
        </mxCell>
        <mxCell id="I6iFiEyMUWEjWhQxhYSQ-8" value="Cats(Pets)" style="rounded=1;whiteSpace=wrap;html=1;" vertex="1" parent="1">
          <mxGeometry x="-80" y="270" width="120" height="60" as="geometry" />
        </mxCell>
        <mxCell id="I6iFiEyMUWEjWhQxhYSQ-9" value="Humsters(Pets)" style="rounded=1;whiteSpace=wrap;html=1;" vertex="1" parent="1">
          <mxGeometry x="240" y="270" width="120" height="60" as="geometry" />
        </mxCell>
        <mxCell id="I6iFiEyMUWEjWhQxhYSQ-10" value="Horses" style="rounded=1;whiteSpace=wrap;html=1;" vertex="1" parent="1">
          <mxGeometry x="440" y="270" width="120" height="60" as="geometry" />
        </mxCell>
        <mxCell id="I6iFiEyMUWEjWhQxhYSQ-11" value="Camels" style="rounded=1;whiteSpace=wrap;html=1;" vertex="1" parent="1">
          <mxGeometry x="600" y="270" width="120" height="60" as="geometry" />
        </mxCell>
        <mxCell id="I6iFiEyMUWEjWhQxhYSQ-12" value="Donkeys" style="rounded=1;whiteSpace=wrap;html=1;" vertex="1" parent="1">
          <mxGeometry x="760" y="270" width="120" height="60" as="geometry" />
        </mxCell>
      </root>
    </mxGraphModel>
  </diagram>
</mxfile>
